/* XPM */
static char *_0541_6ec549e8711a4ef849598fcdf804392e9f9f709c2a4019a0f2762744b30c4f31[] = {
/* columns rows colors chars-per-pixel */
"64 64 256 2 ",
"   c black",
".  c #0000A8",
"X  c #00A800",
"o  c #00A8A8",
"O  c #A80000",
"+  c #A800A8",
"@  c #A85400",
"#  c #4C4436",
"$  c gray33",
"%  c #5454FC",
"&  c #524A42",
"*  c #5E5246",
"=  c #736352",
"-  c #685D4C",
";  c #FCFC54",
":  c gray99",
">  c #ECECEC",
",  c gainsboro",
"<  c #D0D0D0",
"1  c #C0C0C0",
"2  c #B4B4B4",
"3  c gray66",
"4  c #989898",
"5  c gray55",
"6  c #7C7C7C",
"7  c gray44",
"8  c #646464",
"9  c gray33",
"0  c #484848",
"q  c gray22",
"w  c #2C2C2C",
"e  c #202020",
"r  c #FC0000",
"t  c #EC0000",
"y  c #E00000",
"u  c #D40000",
"i  c #C80000",
"p  c #BC0000",
"a  c #B00000",
"s  c #A40000",
"d  c #980000",
"f  c #880000",
"g  c #7C0000",
"h  c #700000",
"j  c #640000",
"k  c #580000",
"l  c #4C0000",
"z  c #400000",
"x  c #FCD8D8",
"c  c #FCB8B8",
"v  c #FC9C9C",
"b  c #FC7C7C",
"n  c #FC5C5C",
"m  c #FC4040",
"M  c #FC2020",
"N  c #FC0000",
"B  c #FCA85C",
"V  c #FC9840",
"C  c #FC8820",
"Z  c #FC7800",
"A  c #E46C00",
"S  c #CC6000",
"D  c #B45400",
"F  c #9C4C00",
"G  c #FCFCD8",
"H  c #FCFCB8",
"J  c #FCFC9C",
"K  c #FCFC7C",
"L  c #FCF85C",
"P  c #FCF440",
"I  c #FCF420",
"U  c #FCF400",
"Y  c #E4D800",
"T  c #CCC400",
"R  c #B4AC00",
"E  c #9C9C00",
"W  c #848400",
"Q  c #706C00",
"!  c #585400",
"~  c #404000",
"^  c #849C7B",
"/  c #738C6B",
"(  c #6B7B63",
")  c #637352",
"_  c #5A6B52",
"`  c #525A4A",
"'  c #4A5242",
"]  c #425239",
"[  c #394A39",
"{  c #313931",
"}  c #313929",
"|  c #293129",
" . c #293121",
".. c #212921",
"X. c #182118",
"o. c #181818",
"O. c #00FC00",
"+. c #00EC00",
"@. c #00E000",
"#. c #00D400",
"$. c #04C800",
"%. c #04BC00",
"&. c #04B000",
"*. c #04A400",
"=. c #049800",
"-. c #048800",
";. c #047C00",
":. c #047000",
">. c #046400",
",. c #045800",
"<. c #044C00",
"1. c #044000",
"2. c #C8BFB2",
"3. c #A89A85",
"4. c #9A8C77",
"5. c #7CFCF8",
"6. c #5CFCFC",
"7. c #40FCFC",
"8. c #20FCFC",
"9. c #00FCFC",
"0. c #00E4E4",
"q. c #00CCCC",
"w. c #00B4B4",
"e. c #009C9C",
"r. c #008484",
"t. c #007070",
"y. c #005858",
"u. c #004040",
"i. c #94846B",
"p. c #8C7B67",
"a. c #847B63",
"s. c #81735D",
"d. c #7B6B5A",
"f. c #007CCC",
"g. c #006CB4",
"h. c #005C9C",
"j. c #736B5A",
"k. c #736B52",
"l. c #9C9CFC",
"z. c #7C80FC",
"x. c #5C60FC",
"c. c #4040FC",
"v. c #2024FC",
"b. c #0004FC",
"n. c #0000FC",
"m. c #0000EC",
"M. c #0000E0",
"N. c #0000D4",
"B. c #0000C8",
"V. c #0000BC",
"C. c #0000B0",
"Z. c #0000A4",
"A. c #000098",
"S. c #000088",
"D. c #00007C",
"F. c #000070",
"G. c #000064",
"H. c #000058",
"J. c #00004C",
"K. c #000040",
"L. c #282828",
"P. c #FCE034",
"I. c #FCD424",
"U. c #FCCC18",
"Y. c #FCC008",
"T. c #FCB400",
"R. c #B420FC",
"E. c #A800FC",
"W. c #9800E4",
"Q. c #8000CC",
"!. c #7400B4",
"~. c #60009C",
"^. c #500084",
"/. c #440070",
"(. c #340058",
"). c #280040",
"_. c #FCD8FC",
"`. c #FCB8FC",
"'. c #FC9CFC",
"]. c #FC7CFC",
"[. c #FC5CFC",
"{. c #FC40FC",
"}. c #FC20FC",
"|. c #FC00FC",
" X c #E000E4",
".X c #C800CC",
"XX c #B400B4",
"oX c #9C009C",
"OX c #840084",
"+X c #6C0070",
"@X c #580058",
"#X c #400040",
"$X c #FCE8DC",
"%X c #FCE0D0",
"&X c #FCD8C4",
"*X c #FCD4BC",
"=X c #FCCCB0",
"-X c #FCC4A4",
";X c #FCBC9C",
":X c #FCB890",
">X c #FCB080",
",X c #FCA470",
"<X c #FC9C60",
"1X c #F0945C",
"2X c #E88C58",
"3X c #DC8854",
"4X c #D08050",
"5X c #C87C4C",
"6X c #BC7848",
"7X c #B47044",
"8X c #A86840",
"9X c #A0643C",
"0X c #9C6038",
"qX c #905C34",
"wX c #885830",
"eX c #80502C",
"rX c #744C28",
"tX c #6C4824",
"yX c #5C4020",
"uX c #543C1C",
"iX c #483818",
"pX c #403018",
"aX c #382C14",
"sX c #28200C",
"dX c #600064",
"fX c #006464",
"gX c #006060",
"hX c #00001C",
"jX c #00002C",
"kX c #302410",
"lX c #480048",
"zX c #500050",
"xX c #000034",
"cX c gray11",
"vX c #4C4C4C",
"bX c gray36",
"nX c gray25",
"mX c gray19",
"MX c #343434",
"NX c #2E2B22",
"BX c #B8E8E8",
"VX c #9CDCDC",
"CX c #74C8C8",
"ZX c #48C0C0",
"AX c #20B4B4",
"SX c #20B0B0",
"DX c #00A4A4",
"FX c #009898",
"GX c #008C8C",
"HX c #008484",
"JX c #007C7C",
"KX c #007878",
"LX c #007474",
"PX c #007070",
"IX c #006C6C",
"UX c #980088",
/* pixels */
"nX$ * vXvX& & vXvX& & & * $ $ $ vXnXmXe o.o.o.o.o.o.o.o.o.o.o.o.o.o.o.o.o.o.o.o.o.o.o.o.X.mXnX0 vXvXvX& & q mXq q q q q nXq # nX",
"# * & vX0 & * $ vX* * $ * * $ * 0 mXe o.o...L.e mXw e ..L.L.....w w mXmXmX .L.L.......o.o.e w q vX& # # # # # q # q q # # q # # ",
"& $ $ 0 vX* $ $ * - - $ $ * $ & q ..o.o.o.q # # # q q mXq q mXq nXnX# # # q q # # mXw e o.o.o.w nX& 0 # q q q q # q # & & q # # ",
"& * * vXvXvX$ * * * - = bX$ & q w o.o.e q # & & & nXnXvX0 0 vX0 & & # q # # # # q q q w ..o.o.o.mXnX0 & # q q # q q # vXvX0 & & ",
"& vXvXvX* * $ * & & & $ * # # mXe o.e q # $ * & * & & * * * - * * & q q # # # # q # # q # e o.o.e mXq & & q mXq # # # # vXvX& & ",
"& & & * $ * & & # # & * # q w o.o.L.q # & $ * & & * & 0 & * & * * & & # # # q # # q # nXnXmX..o.o.X.# # & & # # q # # # & * & & ",
"nX& & $ & & & vX* vX* & q L.o.o.L.# # & & vX& & * vXvXvXvX& & & * $ vX0 & # q # # q # # # nXmXe o.o.o.# # vX& # q # # # & & & # ",
"nX& & & 0 & $ $ $ * & q ..o.o.L.q # # vXvX0 0 0 & $ $ $ vX* & & * * & & * $ vX# # # q 0 & # mX..e o.o.e q # & # q # # # & & & 0 ",
"# & & & $ * * $ - * # w o.o.L.q q # vX* & # 0 0 0 & * - $ & & & & & & * - $ * # # q q & & & # # L...o.o.e # # q nX# # # & & & & ",
"& & & vX$ - * $ * # L.o.e w q nXvX$ * & & & vX& & & * * & & & # # & & * - * & # # # # & vX# & # mXmX..o.o.e mXq 0 & # & # & & & ",
"# # & $ * * & # # e o.o.L.# # & * $ vX& & & vX& * * & & & & & 0 0 # & & * & & # # & $ * 0 # & # q # mXe o.o...# & $ vX& # # # # ",
"# & & * * vX# mXo.o.o...q # & * * & & # & & * & * & vX# & & & & 0 # & # & & # q # & * * & # & & & 0 # w o.o.o.L.# * bX* & # # q ",
"& & & * * # mXo.o.o.L.q # & $ - * & & # # # & & & # # # & * & & & & & # # & # q nX# & * & q # & & $ # mX..o.o.o.# & * * * & # # ",
"& # vX* & mXo.o.o...q nX0 vX* * * & & & & & vX& # # # # & * * & vX& & & & & # q # & & & & q # & bX= * & q w o.o.o.q & & & vX# # ",
"& # vX0 mXo.o.o...mXq 0 * $ * * * $ & * & & vX& q nXnX& * & * & & & & & & # # vX& * $ $ & # # * = bX* & vXnXmXX.o.o.# # & # # & ",
"& & # mXo.o.o.w q nX& vX* * * * * * & $ & & & & # 0 # & $ & * & & & # & & # # vX$ $ = $ & & # vX* * & & 0 vXnXmXX.o.o.w # q # & ",
"& nXw o.o.o.# # # vX$ * * $ - * & * & & * & * & vX* & vX& * & & & vXvX& & & & & $ - - * * * & & vX& 0 vX0 & 0 q L.o.o.o.w mXmX# ",
"# w o.o.o.mX& & * $ $ * * bX- * & & & & & & * vXvX$ $ $ 0 & & # # vXvX* & & & 0 $ * & & & * * * 0 0 & & vX& & # mXw X.o.o...w q ",
"mXo.o.o.# & & * * * vX& * * - & vX0 & vX0 # & * & & * * vX& # # # # vX* * & & & $ vX0 vX0 vX* & 0 & 0 0 vXvX& 0 nXnXmXX.o.o.e w ",
"e o.o.# & * - - * & & * * $ $ vX& & & 0 nXnX# vX# & $ $ vX& # # # q vX$ & & # & & vXvXvX# * * vX0 vXvX0 0 vX* $ 0 nXq L.o.o.o.o.",
"o.o.mX& * - - - * * * * * * vXvX& vX0 q nXq # & vXvX& vXvX& # # # q # & & # # & & vXvX& & $ * & 0 vXvX0 0 vX* vXvX0 nXmXL...e o.",
"o.e q & * - - * * * * & & * & vXvX0 0 nXnXq 0 & vX0 0 0 & & # # # # & & & & # 0 0 0 & # & $ bX* * * vXvXvX$ * 0 0 0 # q mXw ..o.",
"o...q & - - * & $ * * vXvX& & vXvX0 & & & vXvX0 0 0 0 0 & & # # # # # & & & # vXvXvX& & & vX* * - * $ $ $ vX# nXnX0 0 nXq L.e o.",
"o.e mX* = - * & * & vX$ $ vX& 0 & & & & * vXvXvXnXnX0 vX0 # q # # # # & & & & & & & * * * & vX* - * = $ $ 0 nX0 0 0 vX0 q w ..o.",
"o...q * - - * & 0 vXvX& $ $ $ & * * * & & vX$ * # nX# & vX& nXq q q # & & & & & & & & & & & vXvX& * - $ & nXvX& & vXvX# q w ..o.",
"o...nX* - * * & # vX& & $ $ vX& & * & & * & & & & & * & & vXnXq q nX# & & # # & # & & & * & & 0 0 0 * vXvX& vX& 0 vX& vXnXmXL.o.",
"o...# & * * * & & vX& & vXvXvX* & 0 0 & * & 0 vX& & & & & & 0 nXnXnX# # & # # # # 0 & * * & 0 & nXnXvXvXvXvX0 nX0 & & vXvXnXw o.",
"o...# # * & & & 0 & & & * vX* * # q 0 & & & & & # nX& & & # # vX0 # # & & & # # # 0 0 * * 0 0 & 0 & * * vXvX0 nXvX* * $ vXnXmXo.",
"o.e mX# * vX# & & & & & * * * vXnXq vXvX& # & & 0 # & & # # & & & # & & & & # # q nXvX* & & & & & & & * $ vX0 0 * $ vXvX# # w o.",
"o.e mX# * $ & & vX& 0 & $ * * vX0 & & & & # # & 0 & & & # # & & & & & & # & # # q # # & & 0 nXnXnXnX& - $ vXvXvXvXvXvXvXnX# L.o.",
"o.e mX# * - * * vX* $ * * * $ vX# & & & & # & & 0 & * & # # & & & # # # # # # # q # mXq nXnXnXnXnXnX& * * vX* vXvX0 & & # q L.o.",
"o.e mX# * * * $ vX$ $ & & $ * & # 0 0 & & 0 & vX& & & & & # & & # q # # # # & & # q q mXq nX0 nXnX0 & & * 0 & 0 nXnX0 & 0 nXw o.",
"o.e mXnXvX& & $ vX$ vX$ * - * & vXvXvX& vXvX& vX& # # # & & # # # # # # # # # # # # nXmXmXq vX0 0 vX* & & 0 & & 0 nXvX& 0 nXw o.",
"o.o.mX# & & & * & * $ * * - - * vX$ * * * $ vX# # q # # 0 & & vX& & # # # # # # # q # q q # $ $ vXvX* # nX& * * vXvX& 0 & nXmXo.",
"o.o.L.q & & * * & vXvX& * * * & vX& & & & * vXq nXnX# & & & * * * & & # # # # # # # # # # & & vX& & & # nXvX$ bX* vXvXnX& nXw o.",
"o.o...q & # vX$ * $ & & * * & & vX0 vXvX# # nXq nXnX0 & & # * & & * & # # # # # # # # & & & # # & & & # nXvX* * * $ vX0 & nXL.o.",
"o.e w nXvX* vX$ - - * & & & & vX0 nXnX0 # q q q # # # # & # & & # & # & & & & # q # # & $ & # q # & & # & & & & & vXvX* * nXL.o.",
"o.e mX# $ * & $ = - * vX0 vX& 0 vX& # # # q q q q # # # # # # # # # # # & & & & # # & * * & # q q # # # vX& & 0 0 vXvX* - & w o.",
"o.e w # * * * * $ - * vXvX& & 0 & & & # # q q q # # vXvX# # # & # # # # # $ * & & & * $ # & # nXq # # # # # # nX0 # & - * & q o.",
"o.e w q & * - * * $ * * * & & & & & & & # nX# # q 0 $ * & & & & # # # # & * * * * * - * & & & 0 # # # # # # # # # # 0 & 0 nXmXo.",
"o...# # & * - * & & * * * & & 0 nX# # & # # # q # & * * & & * & # # # # & & & vX* $ * * vX& # & # # # # # # # # & & # & vXq ..o.",
"o.L.# # & * * & & & & & & # # q q q q # & # # # # & * * & & * & # # # # & # q # & & & * & & # # & # # # # # # # & & & 0 nXq ..o.",
"o.e w # q # & & & & & & # # q nXq q & * & # nXnX# * * * $ * * & & # & & & # q q # & * * * & # q # # # & # # nX0 # # & nXnXq e o.",
"o.o.o.L.mX# # & & * & & # q q # # & * * # q nXnX# & & * - - * * * & & & # # nX# # # & * $ & & # & # # & # vXnX0 # q # q q ..o.o.",
"..o.o.o.L.mXmX# & * & & # # # nX# & & & # # # q q & & * - * * * * & # # # # # # # # & & & & & & & & # # # vXnX0 0 nXmXw e o.o.o.",
"# L.o.o.o...L.mX# & & & # nXq q nXq # # # # # q q & 0 & * * * - * & # # # & # # # # # # # & & & & & & # # # vX& # # L.X.o.o.o.w ",
"# mXL.o.o.o.e w mX# # # nXnXnXnX# # q q nX# # nX0 & # # & * * - * # # # & & # # # # # nXq # 0 & & & & # # # nXq q w X.o.o.o.w nX",
"vXnXq L.o.o.o.L.# # # # nXq nXnXnX# # q # # nXq vX& & # # & & * & # # & & & # # & # # # # q q & & & & # # 0 0 q mXe o.o.o.# # vX",
"vXnXnXq L.o.o.o.# # # # nX0 vXvX# & & nXq q # # vX& & & # & # * & & & & # & # # & & & # # # & * & # # # 0 nX0 q e o.o.o.w # # vX",
"# # 0 nXq L.o.o.o.mXq q nX& & & & * & # nX# # & * & & vX& & & * # # & # # # # # # vX* # q # & & # # # # # 0 q w o.o.o.w q q nX& ",
"# & vX& # q L.o.o.o.L.# q # & & & & & # # & # * & & & # * & & * & & & # # # # q # & * & nXq # # # # # # # q w o.o.o.w q q nXnX# ",
"# & & * * # # ..o.o.X.mXq q # & & & & # # * * * & # # & * & & & * * & & # # q q # & & & # q # # 0 0 nX# # ..o.o.o.mXnXq # nXq # ",
"# # & * * * # mXw X.o.o.w mX# # & & # & & $ * & # # # & * & # # # & & & q # nX# # & & # # # nXnXvXvXnXq e o.o.o.mX# vXvXvXnXq # ",
"q # # # & & vX# # w o.o.o...w # # # # # # & & & # & & & * & # & & & & # # # & & vX& & # # { nXvX& vXq L.o.o.X.mX& $ * vX0 q q nX",
"nX# q nX# & & * & # w o.o.o.L.mX| q nX# # & # & & & & & & & # # # & & # # # # & & & # # q q # # # # w o.o...q & $ $ $ vX0 q mX# ",
"q # # # # & * * * # # w o.o.o...L.# # # & & # & & # # # # & # # # & # & # # # # # # q nXq nX# nXq L.o.o...mX# * $ & vX& # q q q ",
"q q # & & & * * * 0 nX# w o.o.o.e # # # & & & & # q q # & & # # # # # # & & vX# # # # q 0 nX| q ..o.o...mX# vX$ vX0 # # # # q mX",
"q q # & & & * & & & 0 # # L.o.o.o.L.# # # & & & # q # # & # # # q # # # # & & 0 nXq q nXnXmXL.o.o.o.L.# & * $ * vXvX# # # q q q ",
"q # & & # # & # # vX# # q mXL.o.o.o...# # # # # # # # # # # # # q q # # # # # # # # # # q w o.o.o.L.nX# * - $ vX& # # q mXmXq nX",
"& & * & # # # # 0 vX& vXnXq q w o.o.o.L.# q # # # # # # # # # # # # 0 0 nX# q # & # # # q e o.o.L.nXvXvX- - $ & # q q q mXmXnX# ",
"& * * & # nX& vX0 vX& & & 0 # # w o.o.o.L.q # # # # # # # # # # # # nXnXq # nX0 nXq mXmXe o.o.w # * $ * * & 0 # q q nX# mXq nX# ",
"& & $ & vXvX* $ & 0 & & & & & # nXw o.o.o.w # # mX# mXw w # # # mXmXmXmXmXL.q q mX..X.o.o.o.w # * - - & # q q q # mXnXnXq q q 0 ",
"& $ * & & & & * & & & & & & # # # # L.o.o.e w L.......e ..L.L.w ..o.e L.e e e L.e o.o.o.o.w # & vX- * nXq q nXq q mXq # q q q & ",
"# $ & # # # & & & # & & & & & & & # # L.o.o.o.o.o.o.o.o.o.o.o.o.o.o.o.o.o.o.o.o.o.o.o.o.L.# * & $ $ vX# # q # q q mXq q # q # & "
};
