/* XPM */
static char *_ed0ee395ab441b6820ddd31aef758d6[] = {
/* columns rows colors chars-per-pixel */
"64 64 256 2 ",
"   c black",
".  c #0000A8",
"X  c #00A800",
"o  c #00A8A8",
"O  c #A80000",
"+  c #A800A8",
"@  c #A85400",
"#  c gray66",
"$  c gray33",
"%  c #5454FC",
"&  c #54FC54",
"*  c #54FCFC",
"=  c #FC5454",
"-  c #FC54FC",
";  c #FCFC54",
":  c gray99",
">  c #ECECEC",
",  c gainsboro",
"<  c #D0D0D0",
"1  c #C0C0C0",
"2  c #B4B4B4",
"3  c gray66",
"4  c #989898",
"5  c gray55",
"6  c #7C7C7C",
"7  c gray44",
"8  c #646464",
"9  c gray33",
"0  c #484848",
"q  c gray22",
"w  c #2C2C2C",
"e  c #202020",
"r  c #FC0000",
"t  c #EC0000",
"y  c #E00000",
"u  c #D40000",
"i  c #C80000",
"p  c #BC0000",
"a  c #B00000",
"s  c #A40000",
"d  c #980000",
"f  c #880000",
"g  c #7C0000",
"h  c #700000",
"j  c #640000",
"k  c #580000",
"l  c #4C0000",
"z  c #400000",
"x  c #FCD8D8",
"c  c #FCB8B8",
"v  c #FC9C9C",
"b  c #FC7C7C",
"n  c #FC5C5C",
"m  c #FC4040",
"M  c #FC2020",
"N  c #FC0000",
"B  c #FCA85C",
"V  c #FC9840",
"C  c #FC8820",
"Z  c #FC7800",
"A  c #E46C00",
"S  c #CC6000",
"D  c #B45400",
"F  c #9C4C00",
"G  c #FCFCD8",
"H  c #FCFCB8",
"J  c #FCFC9C",
"K  c #FCFC7C",
"L  c #FCF85C",
"P  c #FCF440",
"I  c #FCF420",
"U  c #FCF400",
"Y  c #E4D800",
"T  c #CCC400",
"R  c #B4AC00",
"E  c #9C9C00",
"W  c #848400",
"Q  c #706C00",
"!  c #585400",
"~  c #404000",
"^  c #D0FC5C",
"/  c #C4FC40",
"(  c #B4FC20",
")  c #A0FC00",
"_  c #90E400",
"`  c #80CC00",
"'  c #74B400",
"]  c #609C00",
"[  c #D8FCD8",
"{  c #BCFCB8",
"}  c #9CFC9C",
"|  c #80FC7C",
" . c #60FC5C",
".. c #40FC40",
"X. c #20FC20",
"o. c #00FC00",
"O. c #00FC00",
"+. c #00EC00",
"@. c #00E000",
"#. c #00D400",
"$. c #04C800",
"%. c #04BC00",
"&. c #04B000",
"*. c #04A400",
"=. c #049800",
"-. c #048800",
";. c #047C00",
":. c #047000",
">. c #046400",
",. c #045800",
"<. c #044C00",
"1. c #044000",
"2. c #D8FCFC",
"3. c #B8FCFC",
"4. c #9CFCFC",
"5. c #7CFCF8",
"6. c #5CFCFC",
"7. c #40FCFC",
"8. c #20FCFC",
"9. c #00FCFC",
"0. c #00E4E4",
"q. c #00CCCC",
"w. c #00B4B4",
"e. c #009C9C",
"r. c #008484",
"t. c #007070",
"y. c #005858",
"u. c #004040",
"i. c #5CBCFC",
"p. c #40B0FC",
"a. c #20A8FC",
"s. c #009CFC",
"d. c #008CE4",
"f. c #007CCC",
"g. c #006CB4",
"h. c #005C9C",
"j. c #D8D8FC",
"k. c #B8BCFC",
"l. c #9C9CFC",
"z. c #7C80FC",
"x. c #5C60FC",
"c. c #4040FC",
"v. c #2024FC",
"b. c #0004FC",
"n. c #0000FC",
"m. c #0000EC",
"M. c #0000E0",
"N. c #0000D4",
"B. c #0000C8",
"V. c #0000BC",
"C. c #0000B0",
"Z. c #0000A4",
"A. c #000098",
"S. c #000088",
"D. c #00007C",
"F. c #000070",
"G. c #000064",
"H. c #000058",
"J. c #00004C",
"K. c #000040",
"L. c #282828",
"P. c #FCE034",
"I. c #FCD424",
"U. c #FCCC18",
"Y. c #FCC008",
"T. c #FCB400",
"R. c #B420FC",
"E. c #A800FC",
"W. c #9800E4",
"Q. c #8000CC",
"!. c #7400B4",
"~. c #60009C",
"^. c #500084",
"/. c #440070",
"(. c #340058",
"). c #280040",
"_. c #FCD8FC",
"`. c #FCB8FC",
"'. c #FC9CFC",
"]. c #FC7CFC",
"[. c #FC5CFC",
"{. c #FC40FC",
"}. c #FC20FC",
"|. c #FC00FC",
" X c #E000E4",
".X c #C800CC",
"XX c #B400B4",
"oX c #9C009C",
"OX c #840084",
"+X c #6C0070",
"@X c #580058",
"#X c #400040",
"$X c #FCE8DC",
"%X c #FCE0D0",
"&X c #FCD8C4",
"*X c #FCD4BC",
"=X c #FCCCB0",
"-X c #FCC4A4",
";X c #FCBC9C",
":X c #FCB890",
">X c #FCB080",
",X c #FCA470",
"<X c #FC9C60",
"1X c #F0945C",
"2X c #E88C58",
"3X c #DC8854",
"4X c #D08050",
"5X c #C87C4C",
"6X c #BC7848",
"7X c #B47044",
"8X c #A86840",
"9X c #A0643C",
"0X c #9C6038",
"qX c #905C34",
"wX c #885830",
"eX c #80502C",
"rX c #744C28",
"tX c #6C4824",
"yX c #5C4020",
"uX c #543C1C",
"iX c #483818",
"pX c #403018",
"aX c #382C14",
"sX c #28200C",
"dX c #600064",
"fX c #006464",
"gX c #006060",
"hX c #00001C",
"jX c #00002C",
"kX c #302410",
"lX c #480048",
"zX c #500050",
"xX c #000034",
"cX c gray11",
"vX c #4C4C4C",
"bX c gray36",
"nX c gray25",
"mX c gray19",
"MX c #343434",
"NX c #D8F4F4",
"BX c #B8E8E8",
"VX c #9CDCDC",
"CX c #74C8C8",
"ZX c #48C0C0",
"AX c #20B4B4",
"SX c #20B0B0",
"DX c #00A4A4",
"FX c #009898",
"GX c #008C8C",
"HX c #008484",
"JX c #007C7C",
"KX c #007878",
"LX c #007474",
"PX c #007070",
"IX c #006C6C",
"UX c #980088",
/* pixels */
"8X9X8X6X8X7X7X6X7X8X0X9X0X9X0XeXeXeXtXyXtXrXtXrXtXeXeXrXeXqXeXwXtXtXyXtXyXrXrXtXyXyXyXyXyXyXyXwXwXqXqX0X0X9X9X8X8X9X7X5X6X3X5X5X",
"8X7X7X6X6X7X9X6X5X6X0XqXqXqXwXeXrXrXyXyXtXrXrXrXtXeXwXqXwXqX0XwXrXtXtXrXtXyXrXtXtXtXyXyXyXuXyXeXwXeX0X0X0X0X0X8X8X6X8X6X5X5X5X7X",
"7X6X7X7X5X5X9X6X5X7X7X9XqXqX9XeXrXtXyXrXrXwXqXqXqX0X8X7X6X8X6X8X0XqXeXeXwXwXwXqXwXrXeXtXtXyXyXtXeXqX9X0XqX0X7X0X9X8X6X9X5X5X6X5X",
"5X6X3X6X3X8X7X4X4X7X7X6X8XwXqXqXeXyXtXeXwXqX0XqX0X9X8X6X5X4X7X5XwX0XqXqXqXqX0XqXqXwXrXrXtXyXyXtXwXeXwXwX0X0X7X0X0X8X5X7X5X7X5X5X",
"8X7X5X5X5X6X6X7X3X5X7X7X7X0XwX0XrXyXeXrXeX0XqXwXqX0X7X9X7X5X6X8X8X9X0X9X9X0X8X0XeXrXwXeXrXyXuXyXrXeXqXwXqX7X8X7X9X7X7X6X6X7X5X4X",
"7X6X6X6X5X3X5X5X7X6X6X8X9X7X8XeXtXyXrXrXwX8XqXeXwX7X8X9X0X8X8X0X0X9X9X7X8X7X7X8X8X8XeXwXeXtXyXuXtXrXeXwX9X7X8XqX8X6X6X5X8X6X5X3X",
"4X4X5X5X5X4X6X6X9X8X7X7X9X9X0XrXyXrXrXeX0X0X8X8XqX8X9X8X8X9XqXqXqX9X9X5X7X5X0X9X8XwX0XqXwXeXtXuXyXrXrX0XqX0X9X0XqX5X7X6X0X7X3X6X",
"5X6X6X6X8X7X9XqXwXqX8X6X0XqXwXtXtXrXeXqXqX9X9X9X8X7X7X9X9XqXqXqX0X8X8X6X9X8X6X7X7X0X8X0XqXeXeXyXyXrXrXrXqX9X9XqX8X9X8X8X6X8X6X7X",
"8X6X6X6X9X0X8X0XwXwX7X9X9XwXeXyXwXrXwX0X8X8X9X7X9X7X7X7XqXqXqXqX0X9X6X0X8X6X7X7X8X0X8X9X0XeXtXtXyXyXrXqXeXqXqXwXqX9X7X7X8X6X8X7X",
"5X6X5X7X8X0XqXeX0X7X8X0X0XrXtXuXrXrXqX0X9X9X9X8X8X6X4X7XqX9XwXwX9X7X7X5X9X9X8X9X9X8X7X9X9XeXrXtXyXyXrXeXeXeXwXqX0X8X8X0X7X6X8X9X",
"9X7X9X0X8XqX9XwX0XqXwXwXqXrXtXrXtXqX8X6X7X9X9X9X7X4X5X0XqX9X0XwX0X0XqX9X8X6X6X6X0X9X7X8X0XwXrXyXyXyXtXtXrXwXqXqXwX0XqX8X6X8X7X0X",
"0X0XqXqX0XqXwX0XqXeXeXwXeXyXyXtXeX9X9X6X8X7X7X6X4X6X6X0X5X9X9X0X9X9X8X7X7X9X6X4X7XwX7X7X8X0XeXtXyXtXyXtXrXeXeXeXqXqXwX9X8X9X8X0X",
"qXqX0XeXqXqXqXwXqXwXrXrXtXyXtXtXqX8X7X6X6X7X8X7X5X5X8X0X7X9X8X9X0X8X6X7X6X6X5X3X0X8X7X7X0XwXwXrXyXtXuXyXtXtXrXeXwXeXwXqXqXqXqXqX",
"qXqXeXeXwXrXrXeXrXeXrXtXyXyXrXtXqX7X8X8X7X5X6X5X5X3X7X8X8X8X9X8X0X8X8X0X9X8X6X7X7X8X7X0X7XwXqXrXtXtXyXyXyXyXtXtXwXrXeXwXqXwXwXeX",
"eXrXtXrXeXrXtXrXrXyXtXrXuXrXtXrX8X0X5X8X7X5X4X4X5X3X4X7X8X8X8X9X9X7X9X0X9X6X3X4X7X5X8XqX0XwXwXrXyXyXyXuXyXyXtXtXrXrXrXrXrXeXrXrX",
"tXtXyXuXyXtXtXyXyXyXyXyXyXyXrXeX7X0X7X8X9X7X4X5X5X4X5X4X5X5X8X8X7X8X8X8X6X5X3X6X4X0X6X0X7XqXwXrXrXyXyXuXuXuXuXyXyXyXyXtXtXyXyXyX",
"wXeXrXrXeXwXeXeXrXeXrXyXyXyXyXtXqXqXqX8X7X8X6X5X5X4X6X5X6X7X0X7X9X9X6X3X4X0X6X5X8X7X6X0XwXeXeXeXtXyXyXuXtXtXtXeXqXeXeXeXqXeXrXrX",
"eXwXeXeXeXeXeXeXrXeXeXtXuXuXtXrXeXqX8X8X6X4X5X4X6X4X5X5X7X6XqX8X8X7X7X5X5X5X3X4X9X5X5X6XqXwXeXqXtXyXyXyXyXtXrXrXrXeXrXeXwXeXeXwX",
"0X0X0X0XqX0XqXeXeXtXrXtXyXuXyXrXrXwX7X8X7X4X5X4X5X5X5X5X5X7X9X7X6X7X6X7X6X6X4X6X7X7X8X9XqXwXeXwXtXyXuXyXtXrXwXqXwXeXwXqXwXqXwXqX",
"0X0X0XqXqXeXqXqXeXrXeXtXtXyXyXyXrXwX6X7X5X4X3X7X3X5X5X4X4X0X9X4X5X7X7X5X6X5X5X6X6X5X9X9XwXeXrXrXtXyXyXtXtXeXwXqXqXwXqXqX0X0XqX8X",
"0X9X0X8X9X9XwXqXeXrXrXrXtXyXuXyXyXeX8X9X4X3X4X6X3X5X7X5X4X6X6X5X7X7X6X7X5X5X6X6X0X6X9XqX0XqXeXrXyXyXtXtXrXwXqX0X0XwXwXqXwXqX0X8X",
"7XqX9X8XeX0X9X0XwXwXeXrXrXtXyXyXyXrXwXqX6X5X6X7X4X6X6X6X6X5X4X6X7X5X3X5X5X6X6X6X8X0XqX0X9XqXwXtXtXyXtXrXwXwXqX0X8XqXqX0X0XqXqXqX",
"0X9X0X9XwX7X8XwXwX0XwXeXrXtXyXuXyXyXrXqX7X7X6X7X7X8X6X6X7X6X4X5X5X8X5X4X4X8X5X6X6X9X7X0XqXwXrXtXyXrXrXrXqX9XqX9X9X0X8X8X0X0XqX9X",
"8X8X0X0XeXqX6XeX0X0XqXqXrXrXtXyXyXyXyXrX9X0X8X9X7X8X5X6X9X9X9X6X6X8X7X4X4X5X7X6X0XqX0XqX0XrXtXyXyXrXrXwX0X0X8X6X8X7X7X9X8X0X9X9X",
"8X9X9XwX0X9X8X0X0X0X0XeXrXrXrXyXyXyXtXtXwX0XqX8X8X6X3X7X6X9X8X7X9XqX0X4X6X7X8XqXqXwX0XeXwXrXtXyXeXtXwX0X0X0X8X6X6X6X6X6X6X6X7X0X",
"6X0X7XqX9X9X0X8X9X0X9X0XeXrXrXtXuXyXtXyXrXeXeXwXwX8X7X6X6X8X8X9X9X8X8X7X6X8X0XqXqXqX9XwXeXtXtXyXrXrXqX0X9X8X9X8X7X7X7X5X6X6X8X7X",
"6X8X9X9X8X7X6X7X7X9X8X7X0XwXeXyXtXuXuXtXtXrXrXrXrXwX0X9X6X8X9X6X9X8X7X6X6X8X9X9XwX0XqXqXtXtXyXrXeXwX8X7X6X5X6X7X8X7X6X6X6X6X6X9X",
"8X8X7X6X7X7X5X7X6X8X8X8XqXqXrXtXyXyXyXyXyXtXrXrXtXeXrXqX0XqXqX0XwX0X0X8X0X0X7XqXwXwXqXrXrXtXyXeX0X7X9X0X7X7X6X7X6X7X7X6X3X6X8X6X",
"5X6X6X6X5X6X6X8X7X8X8X9X9X8XeXtXtXtXyXyXyXtXtXrXeXrXrXwXeXwXeXwXeXeXeXwX9XwXqX0XwXwXrXyXyXyXeXwX9X9X7X6X4X8X7X7X7X8X8X7X6X8X7X8X",
"8X5X7X7X6X6X0X8X7X9X9XqX8X8XqXeXeXtXyXyXtXyXtXrXtXtXrXeXrXeXeXrXrXrXeXwXwXeXeXrXtXeXeXtXyXyXtXwX0X7X0X0X8XqX9X8X7X7X8X9X6X8X9X8X",
"5X8X9X6X8X9X8X6X5X7X0X8X8X9XwXwXrXtXtXyXyXtXyXyXtXyXtXtXtXrXtXtXyXtXyXtXtXtXyXtXtXrXtXyXyXrXeX0XqX0X9XwXqXqX0X9X9X7X0XqX7X6X6X7X",
"7X7X7X7X9X0XwX6X5XqX9X7X7X8X9XwXrXtXtXyXyXyXyXyXuXuXyXyXyXyXuXyXyXuXyXyXyXyXyXyXyXyXyXyXyXeXeXwX0X0XqX0X0X0XqXqX0X0X0X8X6X8X6X6X",
"6X7X6X9X8X0X8X4X0X0X0X7X8XeXeXrXtXyXtXyXyXyXtXtXrXyXyXyXyXyXyXtXtXyXtXrXrXtXtXtXrXtXtXtXyXrXeXrXeXeXqX0X0X9X8X0X9X8X8X7X7X8X6X7X",
"5X8X6X6X8X9X7X9X8X7XqX8X0XeXeXrXrXtXtXyXtXtXtXrXtXtXtXrXyXtXrXtXrXrXrXrXrXrXtXtXtXtXeXeXyXtXeXeXwXqXeX0X9X8X0XqX0X7X8X6X8X6X8X6X",
"6X5X6X6X8X9X7X6X8X4X8X9X8X0XeXtXrXtXuXtXyXtXrXwXrXeXwXeXrXrXtXrXrXeXeXrXeXtXrXeXrXeXeXrXtXyXtXrXeXwXwX0X0X9X9XqX9X6X7X7X7X5X5X6X",
"7X5X7X7X8X0X4X0X3X3X6X4X6X8X0XeXwXtXyXyXtXtXrXrXqXwX0XwX0XqXqXwXqX0XqX0XwXwXtXwXqXqXeXwXrXyXyXtXeXqX0XqX0X8XqX9X0X9X7X6X6X6X5X5X",
"8X7X9X7X5X3X5X9X4X4X3X5X7X0X6X9XeXyXrXtXtXeXeXqXqXwXqX0XqXqXqXwX0X0X0X0XwXqXqX9X9X0XeXeXeXtXyXtXrXwX0X8X9XqX0X0XwX9X7X4X5X7X5X6X",
"0X9X6X7X8X5X7X7X3X3X3X9X8X9X8XwXrXyXtXrXrXwXwXwXqXwX9XqX0X0X9X0X0XqX9XqX9X0XqXqX9XqXeXwXeXrXtXyXrXeX0X7X8X9XwXqXqX8X8X6X6X7X7X9X",
"9X8X5X6X9XqX6X8X8X5X5X6X6X9X8XqXyXyXtXrXeX0XqXwXqXqXeXqX0X0X0X9X0X9X9X0XwX0X0XqX0XqXqXwXeXeXrXyXtXeXqX0XqX9X0X9X7X6X5X7X8X4X0X8X",
"9X6X7X9X0X8X8X6X6X6X4X5X9X9X0XrXyXrXtXtXqX9X0XqXqXwX0X9XqX9X0X9XqX0XqX9X9X8X8XwXqXqX0XwXeXeXrXtXtXtX0X9X8X8X0X8X7X7X4X6X7X5X9X7X",
"qXqX0X9X0X9X8X4X6X4X3X5X9XqXwXrXrXrXtXeX9X8XqXeXqX0X0X0X0X0X8X9X9X9X9X9X9X8X8X8X0XqXwX9XqXrXeXrXtXyXeX9X0XwXqXqX5X7X8X6X5X6X6X7X",
"9X0X0X0X8X8X9X7X7X7X8X7X8XeXeXrXtXtXeXwX9X9XqX9XqX8X7X0X9X9X8X7X8X9X0X0X7X6X0X0X0X0X9XqXqXrXeXtXtXyXtXqX0XqXwXqX6X6X6X5X8X6X6X9X",
"0X8XqXqX8X8X9X6X9X0X0XqX0XwXtXeXtXtXqX8X6X8XqXwXqX7X0X9X8X9X8X0XqX8X8X9X9X8X9X9X0X7X9X0XqXwXeXrXtXuXtXeX9XqXwX0X0X7X8XqX7X7X8X6X",
"qX9XwX9XqX9X0X9X0XqX9XeXqXeXtXrXrXqX0X8X8X9XqXwX0X6X9X8X9X0X9X8X9X8X8X9X6X5X7X8X8X8X8X0X9XwXrXyXyXyXuXtXeXqX0X0X0X8X0XqXqX8X9X8X",
"wXqX9XqX9X0X0XwXeX0XrXrXeXtXrXtXrX8X7X9X0X0X9XqX7X8X6X0X0X9X0X8X9X7X9X8X7X5X7X7X8X8XqXqX0XwXeXyXtXyXyXyXtXrXqX9XqXqXwXqXqX0X8XqX",
"tXrXqXwXqXwXwXeXrXqXeXrXrXtXtXrX9X6X9X9X0X8X8X9X8X8X6X9X7X7X6X8X9X6X8X8X8X7X7X9X8X7X9X9XwXwXqXtXyXyXyXtXyXrXeXwXwX9XwXwX9XqXqXeX",
"rXtXrXqXeXeXrXrXwXeXrXtXtXeXeXwX9X6X6X9X9X8X9X8X7X4X6X7X0X9X8X7X8X9X8X8X8X8X7X8X8X8XqXqXqX0XqXrXtXrXrXuXtXyXrXeXrXeXwXwXeXwXrXeX",
"uXuXyXtXrXtXyXyXtXtXtXuXyXeXeXqX7X7X7X7X8X9X7X7X8X8X8X8X7X0X9X7X0X0X7X8X9X8X8X8X8X6XwXqXqX0XqXeXrXuXyXyXyXyXyXyXtXyXtXtXrXyXyXyX",
"eXtXrXrXeXqXeXrXrXrXwXyXyXyXrXeX8X8XqX8X0X9XqX9X9X6X8XwXqX0X9X9X9X0X0X8X8X6X6X8X7X7X0X8X0XqXqXeXrXtXyXyXtXtXrXtXwXeXwXqXqXeXeXeX",
"rXeXtXtXrXtXeXyXtXrXyXrXyXtXrX0X0XqX9X9X9X7X6X7X8X7X7X9X0XqX9X6X0X9X0X0X6X7X6X7X5X7X6X9XqXqXwXwXrXtXuXyXtXyXtXtXeXeXrXeXwXtXrXrX",
"0X0XrXtXrXwXrXeXtXtXtXtXtXuXtXeX0XqX9X8X7X6X6X7X8X0X9X9X0X0X9X8X8X9X8X0X7X8X6X7X7X6X0X7XwXqXqXeXtXyXuXyXyXtXtXrXrXwXeXeXeXwXwXwX",
"0XqXwXqXwXrXwXqXeXeXrXtXrXtXyXrXwXqX0X8X7X6X7X6X6X9X8X9X9X8X0X0X8X7X0X7X8X7X5X7X5X7X7X8X9XqXwXrXtXyXyXtXtXeXeXrXeXeX0XqXqXqX0XqX",
"0XqXqXqXwXqXwXqXwXeXeXrXrXtXyXrXeXwXqX8X7X6X6X7X7X7X0X0X9X9X0X9X0X9X0X6X7X9X8X7X5X6X8XqXqXqXeXtXyXyXtXtXwXwXqX9X0XeXqXqX9X8XqX9X",
"0XqXqX0XeXwXqX0XeXrXrXwXrXrXyXyXrXwX0X0X8X7X7X7X8X7X0X0X0X9X0X9X0X8X0X6X5X8X9X6X4X7X8XwXwXwXrXtXyXyXrXeXwXqXqXqX0XqXqXqX7X8X8X9X",
"0X0XwXqXwXqXwXqXwXeXeXeXeXtXtXyXtXeXwXeXqX5X6X6X6X0X0X8X9X0X0X8X9X0X9X7X7X7X5X6X7X9X9X0X0XeXrXyXuXyXrXqX0X9XqX0XqXqXwX9X8X7X8X8X",
"9X8X9XqXwXqXqXqXwXwXwXwXwXrXtXuXyXrXrXeX9X6X5X7X6X7X7X6X8XqX0X8XqXqX9X7X7X6X6X6X9X8X9XqXqXeXtXyXyXtXeXqX9X0XqX0XqX9X0X0XqX9X7X8X",
"8X8X8X0X0X0X9XqXwXwXqXwXwXwXrXrXyXyXrXwX0X6X6X8X7X6X8X9XqXqX7X0X9X9X9X8X9X8X5X5X7X9XqXwXwXwXyXiXtXtXqXwXqXwXeX0X0XwXwX8X8X9X9X8X",
"7X8X7X9X9X6X7XqX0XwXrXqXqX0XwXtXyXyXrXeXqX9X8X0X7X9X9XqXqXqX8X7XqX7X0X9XqX0X6X6X5X8X9XqXwXeXuXuXtXeXwX0X0XqX0X8X0X0X9X9X8X9X7X7X",
"6X7X8X0X0X9X9X0XwXeX0XwXwX0XqXeXtXyXtXeXeX9X8X8X9X9X7X0XqX0X8XqXqX0X0X9X9X9X4X6X6X8X0XwXeXtXuXtXeXwXwX9X8X0X0X8XqX0X8X8X0X0X6X7X",
"7X9X9XqXwX8X8XwXqXwXwXwXqX9XqXwXrXyXyXtXrXwX8X9X0X0X0X0X0XqX9XqX0XqX0X8X0X7X6X7X7X9XwXwXtXuXyXtXeX9X0X9X9X0X0X8X8X7X8X8X7X8X7X6X",
"7X9X9X0X0XqX0XwXwXqXwXwX0X0XqXeXrXrXyXyXrXeX0XwX7XeX8X8X8X8X0X0X0XwXqXqXqX8X8X7X0XwXrXeXyXuXyXrXqX0X9X8XqX7XqX9X6X8X7X9X8X0X9X7X",
"7X8X7X9X9X9X8XwXeXqXqXwX7XqXwXeXwXrXyXtXtXeXrXeXqXwX8X7X8X9XeX9XrXrXrXtXtXeXrXeXtXtXtXtXyXuXrXrX9X8X7X7X7X7X0X8X6X8X8X7X9X8X7X7X",
"8X7X7X8X8X7X9XqXwXwXqXqX8XwX0X9X0XrXrXyXtXyXtXtXrXrXeXwXeXwXeXeXyXtXtXyXtXyXyXtXuXyXuXyXuXyXyXwX9X0X8X8X7X0X8X8X5X7X9X8X8X7X7X6X",
"7X7X6X7X7X6X8X9XqX8X0X6X6XqXwXqXqXrXrXyXyXyXyXyXyXyXyXyXyXyXyXyXiXyXyXuXuXuXyXuXuXuXuXuXuXyXtXeXqX9X0X8X9X0X9X8X7X9X9X8X7X6X7X7X"
};
